<svg width="110" height="110" viewBox="0 0 110 110" fill="none" xmlns="http://www.w3.org/2000/svg">
<path d="M55 0C58.6467 0 62.1441 1.44866 64.7227 4.02728C67.3013 6.60591 68.75 10.1033 68.75 13.75C68.75 17.3967 67.3013 20.8941 64.7227 23.4727C62.1441 26.0513 58.6467 27.5 55 27.5C51.3533 27.5 47.8559 26.0513 45.2773 23.4727C42.6987 20.8941 41.25 17.3967 41.25 13.75C41.25 10.1033 42.6987 6.60591 45.2773 4.02728C47.8559 1.44866 51.3533 0 55 0ZM75.625 67.0313C75.625 72.4023 72.8965 77.1289 68.75 79.9004V99.6875C68.75 105.381 64.1309 110 58.4375 110H51.5625C45.8691 110 41.25 105.381 41.25 99.6875V79.9004C37.1035 77.1289 34.375 72.4023 34.375 67.0313V58.4375C34.375 47.0508 43.6133 37.8125 55 37.8125C66.3867 37.8125 75.625 47.0508 75.625 58.4375V67.0313ZM20.625 6.875C22.205 6.875 23.7695 7.1862 25.2292 7.79082C26.6889 8.39545 28.0152 9.28167 29.1324 10.3989C30.2496 11.5161 31.1358 12.8424 31.7404 14.3021C32.3451 15.7618 32.6563 17.3263 32.6563 18.9063C32.6563 20.4862 32.3451 22.0507 31.7404 23.5104C31.1358 24.9701 30.2496 26.2964 29.1324 27.4136C28.0152 28.5308 26.6889 29.4171 25.2292 30.0217C23.7695 30.6263 22.205 30.9375 20.625 30.9375C19.045 30.9375 17.4805 30.6263 16.0208 30.0217C14.5611 29.4171 13.2348 28.5308 12.1176 27.4136C11.0004 26.2964 10.1142 24.9701 9.50957 23.5104C8.90495 22.0507 8.59375 20.4862 8.59375 18.9063C8.59375 17.3263 8.90495 15.7618 9.50957 14.3021C10.1142 12.8424 11.0004 11.5161 12.1176 10.3989C13.2348 9.28167 14.5611 8.39545 16.0208 7.79082C17.4805 7.1862 19.045 6.875 20.625 6.875ZM24.0625 58.4375V65.3125C24.0625 72.2949 26.6621 78.6543 30.9375 83.5098V99.6875C30.9375 99.9453 30.9375 100.225 30.959 100.482C29.1328 102.115 26.7266 103.125 24.0625 103.125H17.1875C11.4941 103.125 6.875 98.5059 6.875 92.8125V80.6523C2.77148 78.2891 0 73.8418 0 68.75V61.875C0 50.4883 9.23828 41.25 20.625 41.25C23.3535 41.25 25.9531 41.7871 28.3379 42.7324C25.6309 47.3301 24.0625 52.7012 24.0625 58.4375ZM79.0625 99.6875V83.5098C83.3379 78.6758 85.9375 72.2949 85.9375 65.3125V58.4375C85.9375 52.7012 84.3691 47.3516 81.6621 42.7324C84.0469 41.7656 86.6465 41.25 89.375 41.25C100.762 41.25 110 50.4883 110 61.875V68.75C110 73.8418 107.229 78.2891 103.125 80.6523V92.8125C103.125 98.5059 98.5059 103.125 92.8125 103.125H85.9375C83.2949 103.125 80.8672 102.137 79.041 100.482C79.041 100.225 79.0625 99.9453 79.0625 99.6875ZM89.375 6.875C90.955 6.875 92.5195 7.1862 93.9792 7.79082C95.4389 8.39545 96.7652 9.28167 97.8824 10.3989C98.9996 11.5161 99.8858 12.8424 100.49 14.3021C101.095 15.7618 101.406 17.3263 101.406 18.9063C101.406 20.4862 101.095 22.0507 100.49 23.5104C99.8858 24.9701 98.9996 26.2964 97.8824 27.4136C96.7652 28.5308 95.4389 29.4171 93.9792 30.0217C92.5195 30.6263 90.955 30.9375 89.375 30.9375C87.795 30.9375 86.2305 30.6263 84.7708 30.0217C83.3111 29.4171 81.9848 28.5308 80.8676 27.4136C79.7504 26.2964 78.8642 24.9701 78.2596 23.5104C77.655 22.0507 77.3438 20.4862 77.3438 18.9063C77.3438 17.3263 77.655 15.7618 78.2596 14.3021C78.8642 12.8424 79.7504 11.5161 80.8676 10.3989C81.9848 9.28167 83.3111 8.39545 84.7708 7.79082C86.2305 7.1862 87.795 6.875 89.375 6.875Z" fill="black"/>
</svg>
